<?xml version="1.0" standalone="no"?>
<!DOCTYPE svg PUBLIC "-//W3C//DTD SVG 20010904//EN"
 "http://www.w3.org/TR/2001/REC-SVG-20010904/DTD/svg10.dtd">
<svg version="1.0" xmlns="http://www.w3.org/2000/svg"
 width="240.000000pt" height="240.000000pt" viewBox="0 0 240.000000 240.000000"
 preserveAspectRatio="xMidYMid meet">

<g transform="translate(0.000000,240.000000) scale(0.100000,-0.100000)"
fill="#000000" stroke="none">
<path d="M0 1200 l0 -1200 1200 0 1200 0 -1 688 c-1 378 -4 698 -8 712 -4 14
-6 -22 -3 -80 l4 -105 -148 147 -148 147 17 36 c27 57 13 41 -43 -52 -90 -148
-217 -337 -244 -362 l-25 -24 -40 33 c-23 17 -41 37 -41 44 0 29 165 221 342
399 48 48 75 79 60 68 -15 -10 -40 -33 -57 -50 l-29 -32 -153 153 -152 152
-41 -19 -40 -20 -275 275 c-151 151 -275 276 -275 277 0 1 55 4 123 6 67 1
-181 4 -550 5 l-673 2 0 -1200z m1283 737 c21 -6 58 -28 83 -50 114 -100 91
-284 -57 -441 -138 -148 -171 -110 -42 49 99 123 137 237 98 292 -36 51 -152
55 -264 10 -111 -45 -174 -90 -296 -212 -304 -304 -454 -650 -370 -850 83
-201 356 -255 617 -121 131 67 218 129 250 180 48 79 94 90 151 39 19 -18 37
-9 19 9 -15 15 -15 38 0 38 6 0 22 -10 35 -22 l23 -21 0 21 c0 12 5 22 11 22
6 0 9 -10 7 -22 -2 -16 -10 -23 -24 -22 -14 0 -20 -6 -20 -20 1 -30 -37 -32
-81 -5 -41 26 -32 32 -96 -66 -37 -56 -137 -129 -282 -202 -116 -59 -178 -80
-280 -95 -288 -41 -505 153 -505 452 0 300 199 675 465 874 205 155 394 210
558 163z m468 -808 c33 -26 39 -36 39 -69 0 -80 -101 -170 -192 -170 -45 0
-61 11 -38 25 6 3 10 34 10 68 0 74 22 122 70 155 44 29 65 28 111 -9z"/>
<path d="M1640 1095 c-17 -18 -21 -28 -13 -36 8 -8 14 -6 22 9 6 11 20 24 31
27 25 8 26 25 2 25 -10 0 -29 -11 -42 -25z"/>
<path d="M2141 1613 c-10 -26 -10 -27 4 -9 8 11 15 23 15 28 0 15 -7 8 -19
-19z"/>
</g>
</svg>
